<?xml version="1.0" encoding="UTF-8" standalone="no"?>
<svg width="12px" height="12px" viewBox="0 0 12 12" version="1.1" xmlns="http://www.w3.org/2000/svg" xmlns:xlink="http://www.w3.org/1999/xlink">
    <!-- Generator: sketchtool 47 (45396) - http://www.bohemiancoding.com/sketch -->
    <title>AED86AAA-2A61-4615-A046-6E71AED8CA08</title>
    <desc>Created with sketchtool.</desc>
    <defs></defs>
    <g id="Pages" stroke="none" stroke-width="1" fill="none" fill-rule="evenodd" fill-opacity="0.7">
        <g id="V6---mobile---side-menu" transform="translate(-27.000000, -594.000000)" fill-rule="nonzero" fill="#FFFFFF" class="theme-header-color">
            <g id="sidebar" transform="translate(-15.000000, 0.000000)">
                <g id="Personal-nav" transform="translate(15.000000, 499.000000)">
                    <g id="ic_refresh_black_24px" transform="translate(27.000000, 95.000000)">
                        <path d="M10.2375,1.7625 C9.15,0.675 7.6575,0 6,0 C2.685,0 0.0075,2.685 0.0075,6 C0.0075,9.315 2.685,12 6,12 C8.7975,12 11.13,10.0875 11.7975,7.5 L10.2375,7.5 C9.6225,9.2475 7.9575,10.5 6,10.5 C3.5175,10.5 1.5,8.4825 1.5,6 C1.5,3.5175 3.5175,1.5 6,1.5 C7.245,1.5 8.355,2.0175 9.165,2.835 L6.75,5.25 L12,5.25 L12,0 L10.2375,1.7625 Z" id="Shape"></path>
                    </g>
                </g>
            </g>
        </g>
    </g>
</svg>