<?xml version="1.0" encoding="UTF-8" standalone="no"?>
<svg width="17px" height="17px" viewBox="0 0 17 17" version="1.1" xmlns="http://www.w3.org/2000/svg" xmlns:xlink="http://www.w3.org/1999/xlink">
    <!-- Generator: sketchtool 47 (45396) - http://www.bohemiancoding.com/sketch -->
    <title>02C49491-E67A-4534-884D-E9FAB838909C</title>
    <desc>Created with sketchtool.</desc>
    <defs></defs>
    <g id="Symbols" stroke="none" stroke-width="1" fill="none" fill-rule="evenodd" fill-opacity="0.7">
        <g id="Symbol/Settings-Copy" fill="#FFFFFF" class="theme-header-color">
            <path d="M14.5132257,9.28679634 C14.5470574,9.0161429 14.5724311,8.74548945 14.5724311,8.45792017 C14.5724311,8.17035088 14.5470574,7.89969744 14.5132257,7.62904399 L16.2978468,6.23348716 C16.4585473,6.10661836 16.5008369,5.87825452 16.3993419,5.69218027 L14.7077578,2.76573989 C14.6062628,2.57966565 14.377899,2.51200229 14.1918247,2.57966565 L12.0858026,3.42545767 C11.6459907,3.08714086 11.1723472,2.8080295 10.6564141,2.59658149 L10.3350131,0.355232647 C10.3096394,0.152242563 10.132023,0 9.92057503,0 L6.53740696,0 C6.32595896,0 6.14834264,0.152242563 6.12296888,0.355232647 L5.80156791,2.59658149 C5.28563478,2.8080295 4.81199125,3.09559878 4.3721794,3.42545767 L2.26615728,2.57966565 C2.07162512,2.50354437 1.85171919,2.57966565 1.75022415,2.76573989 L0.0586401171,5.69218027 C-0.0513128451,5.87825452 -0.000565324059,6.10661836 0.160135159,6.23348716 L1.94475631,7.62904399 C1.91092463,7.89969744 1.88555087,8.1788088 1.88555087,8.45792017 C1.88555087,8.73703153 1.91092463,9.0161429 1.94475631,9.28679634 L0.160135159,10.6823532 C-0.000565324059,10.809222 -0.0428549249,11.0375858 0.0586401171,11.2236601 L1.75022415,14.1501004 C1.85171919,14.3361747 2.08008304,14.403838 2.26615728,14.3361747 L4.3721794,13.4903827 C4.81199125,13.8286995 5.28563478,14.1078108 5.80156791,14.3192588 L6.12296888,16.5606077 C6.14834264,16.7635978 6.32595896,16.9158403 6.53740696,16.9158403 L9.92057503,16.9158403 C10.132023,16.9158403 10.3096394,16.7635978 10.3350131,16.5606077 L10.6564141,14.3192588 C11.1723472,14.1078108 11.6459907,13.8202416 12.0858026,13.4903827 L14.1918247,14.3361747 C14.3863569,14.412296 14.6062628,14.3361747 14.7077578,14.1501004 L16.3993419,11.2236601 C16.5008369,11.0375858 16.4585473,10.809222 16.2978468,10.6823532 L14.5132257,9.28679634 L14.5132257,9.28679634 Z M8.228991,11.4181922 C6.59661241,11.4181922 5.26871894,10.0902988 5.26871894,8.45792017 C5.26871894,6.82554157 6.59661241,5.49764811 8.228991,5.49764811 C9.86136959,5.49764811 11.1892631,6.82554157 11.1892631,8.45792017 C11.1892631,10.0902988 9.86136959,11.4181922 8.228991,11.4181922 Z" id="Shape"></path>
        </g>
    </g>
</svg>