<svg xmlns="http://www.w3.org/2000/svg" width="63" height="65" viewBox="0 0 63 65">
    <path fill="#663B79" fill-rule="nonzero" class="theme-highlight-background-color" d="M55.104 35.695c.127-1.016.222-2.032.222-3.112s-.095-2.095-.222-3.111l6.699-5.239c.603-.476.762-1.333.38-2.032l-6.35-10.985c-.38-.699-1.237-.953-1.936-.699l-7.906 3.175a23.197 23.197 0 0 0-5.365-3.111l-1.207-8.414c-.095-.762-.762-1.334-1.556-1.334h-12.7c-.793 0-1.46.572-1.555 1.334L22.4 10.58c-1.937.793-3.715 1.873-5.366 3.111L9.13 10.517c-.73-.286-1.556 0-1.937.699L.843 22.2a1.565 1.565 0 0 0 .38 2.032l6.7 5.239c-.127 1.016-.222 2.064-.222 3.111 0 1.048.095 2.096.222 3.112l-6.7 5.239c-.602.476-.761 1.333-.38 2.032l6.35 10.985c.38.699 1.238.953 1.937.699l7.905-3.175a23.197 23.197 0 0 0 5.366 3.111L23.608 63c.095.762.762 1.333 1.555 1.333h12.7c.794 0 1.46-.571 1.556-1.333l1.207-8.414c1.936-.794 3.714-1.873 5.365-3.111l7.906 3.175c.73.285 1.556 0 1.937-.699l6.35-10.985c.38-.699.222-1.556-.381-2.032l-6.7-5.24zm-23.59 8c-6.128 0-11.113-4.984-11.113-11.112 0-6.127 4.985-11.112 11.112-11.112 6.128 0 11.113 4.985 11.113 11.112 0 6.128-4.985 11.113-11.113 11.113z"/>
</svg>
