<svg xmlns="http://www.w3.org/2000/svg" width="41" height="54" viewBox="0 0 41 54">
    <g fill="#FFF" fill-rule="evenodd" class="theme-header-color">
        <path d="M23.928 19.472c.042-.334.073-.669.073-1.024s-.031-.69-.073-1.024l2.205-1.724a.527.527 0 0 0 .125-.668l-2.09-3.615c-.125-.23-.407-.314-.637-.23L20.93 12.23a7.633 7.633 0 0 0-1.766-1.023l-.397-2.77A.51.51 0 0 0 18.255 8h-4.18a.51.51 0 0 0-.511.439l-.397 2.769A8.027 8.027 0 0 0 11.4 12.23l-2.602-1.044a.51.51 0 0 0-.637.23l-2.09 3.615a.515.515 0 0 0 .126.668l2.204 1.724c-.041.334-.073.68-.073 1.024 0 .345.032.69.073 1.024l-2.204 1.724a.527.527 0 0 0-.126.669l2.09 3.615c.125.23.408.313.637.23l2.602-1.045a7.633 7.633 0 0 0 1.766 1.023l.397 2.77a.51.51 0 0 0 .512.438h4.179a.51.51 0 0 0 .512-.439l.397-2.769a8.027 8.027 0 0 0 1.766-1.023l2.601 1.044a.51.51 0 0 0 .637-.23l2.09-3.614a.527.527 0 0 0-.125-.67l-2.205-1.723zm-7.763 2.633a3.66 3.66 0 0 1-3.657-3.657 3.66 3.66 0 0 1 3.657-3.657 3.66 3.66 0 0 1 3.657 3.657 3.66 3.66 0 0 1-3.657 3.657zM35 24l-4-8h8z"/>
    </g>
</svg>
