<svg xmlns="http://www.w3.org/2000/svg" width="70" height="65" viewBox="0 0 70 65">
    <path fill="windowText" fill-rule="evenodd" class="theme-highlight-background-color" d="M38.68 42.575h8.46v12.998c0 1.504-.227 2.816-.686 3.937-.46 1.121-1.047 2.03-1.797 2.739a7.103 7.103 0 0 1-2.624 1.568 9.88 9.88 0 0 1-3.204.51H8.664a8.32 8.32 0 0 1-3.204-.652 8.689 8.689 0 0 1-2.772-1.81c-.8-.773-1.436-1.688-1.938-2.738C.248 58.07 0 56.914 0 55.637V8.414c0-1.092.262-2.15.785-3.15a9.89 9.89 0 0 1 2.016-2.667A10.368 10.368 0 0 1 5.53.717C6.528.24 7.532 0 8.53 0h29.946c1.18 0 2.298.255 3.338.788a10.538 10.538 0 0 1 2.765 1.986 9.046 9.046 0 0 1 1.875 2.703c.46 1 .686 1.987.686 2.937V21h-8.46l.064-13.075H8.594L8.53 55.622h30.158V42.575h-.007zm29.331-12.791c1.683 1.369 1.733 2.717.135 4.036a36.85 36.85 0 0 0-2.964 2.533c-1.068 1-2.178 2.036-3.338 3.115-1.16 1.071-2.306 2.128-3.445 3.185a62.5 62.5 0 0 1-3.14 2.739c-1.047.816-1.938 1.227-2.702 1.227-.75 0-1.124-.553-1.124-1.646.092-.631.099-1.44.035-2.398a38.288 38.288 0 0 1-.099-2.462c0-.78-.276-1.255-.813-1.44-.552-.184-1.21-.276-1.98-.276h-6.897c-1.548 0-3.175-.008-4.88-.036a291.212 291.212 0 0 0-4.88-.035h-6.966a8.12 8.12 0 0 1-1.189-.1 2.946 2.946 0 0 1-1.16-.44 2.404 2.404 0 0 1-.813-.957c-.205-.412-.311-.937-.311-1.568 0-.866-.007-1.895-.036-3.08a44.627 44.627 0 0 1 .036-3.15c.007-1.227.311-2.071.898-2.532.594-.461 1.549-.66 2.865-.618h6.202c1.457 0 3.013.008 4.675.036 1.655.028 3.24.035 4.74.035h6.69c1.139.043 2.108-.042 2.9-.276.799-.227 1.188-.724 1.188-1.504 0-.632.028-1.355.064-2.157.042-.802.063-1.518.063-2.157 0-1.05.283-1.71.849-1.986.566-.277 1.28-.064 2.15.617.863.723 1.874 1.589 3.041 2.561a384.7 384.7 0 0 1 3.515 3.008c1.182 1.029 2.356 2.036 3.516 3.05a172.123 172.123 0 0 0 3.175 2.676z"/>
</svg>
