<svg xmlns="http://www.w3.org/2000/svg" width="72" height="49" viewBox="0 0 72 49">
    <g fill="none" fill-rule="evenodd">
        <path fill="#67397A" class="theme-highlight-background-color" d="M0 0h72v40H0z"/>
        <path fill="#FFF" class="high-contrast-colors background" d="M20.61 19.5a5.895 5.895 0 0 1 5.89-5.89h7.6V10h-7.6c-5.244 0-9.5 4.256-9.5 9.5s4.256 9.5 9.5 9.5h7.6v-3.61h-7.6a5.895 5.895 0 0 1-5.89-5.89z"/>
        <path fill="#FFF" class="high-contrast-colors background" d="M28.4 21.4h15.2v-3.8H28.4z"/>
        <path fill="#FFF" class="high-contrast-colors background" d="M45.5 10h-7.6v3.61h7.6a5.895 5.895 0 0 1 5.89 5.89 5.895 5.895 0 0 1-5.89 5.89h-7.6V29h7.6c5.244 0 9.5-4.256 9.5-9.5S50.744 10 45.5 10z"/>
        <path fill="#67397A" class="theme-highlight-background-color" d="M21 45h32v4H21z"/>
        <path stroke="#FFF" class="high-contrast-colors background" stroke-linecap="square" stroke-width="4" d="M5.5 6.5l61 26"/>
    </g>
</svg>
