<svg xmlns="http://www.w3.org/2000/svg" xmlns:xlink="http://www.w3.org/1999/xlink" width="75" height="70" viewBox="0 0 75 70">
    <defs>
        <ellipse id="a" cx="31.354" cy="35.984" rx="20.014" ry="20.014"/>
        <ellipse id="b" cx="30.855" cy="35.485" rx="9.309" ry="9.309"/>
        <path id="c" d="M68.798 14.393c0-.49-.043-.95-.101-1.41l3.037-2.376a.726.726 0 0 0 .173-.92l-2.879-4.98c-.173-.317-.561-.432-.878-.317l-3.584 1.44a10.515 10.515 0 0 0-2.432-1.411L61.587.604A.702.702 0 0 0 60.882 0h-5.757c-.36 0-.662.26-.706.604l-.547 3.815c-.877.36-1.683.849-2.432 1.41l-3.584-1.44a.702.702 0 0 0-.878.317L44.1 9.686a.71.71 0 0 0 .173.921l3.036 2.375c-.057.46-.1.936-.1 1.41 0 .476.043.95.1 1.411l-3.036 2.375a.726.726 0 0 0-.173.921l2.878 4.98c.173.317.562.432.878.317l3.584-1.44c.749.576 1.555 1.051 2.432 1.41l.547 3.815a.702.702 0 0 0 .706.604h5.757c.36 0 .662-.259.705-.604l.547-3.814c.878-.36 1.684-.85 2.432-1.41l3.584 1.439c.331.13.705 0 .878-.317l2.879-4.98a.726.726 0 0 0-.173-.921l-3.037-2.375c.058-.46.1-.92.1-1.41zM58.003 19.43a5.043 5.043 0 0 1-5.037-5.037 5.043 5.043 0 0 1 5.037-5.038 5.043 5.043 0 0 1 5.038 5.038 5.043 5.043 0 0 1-5.038 5.037z"/>
    </defs>
    <g fill="none" fill-rule="evenodd" transform="translate(0 3)">
        <circle cx="31.185" cy="35.815" r="31.185" fill="#67397A" class="theme-highlight-background-color"/>
        <use fill="#67397A" class="theme-highlight-background-color" xlink:href="#a"/>
        <ellipse cx="31.354" cy="35.984" stroke="#FFF" stroke-width="4" class="high-contrast-colors background" rx="22.014" ry="22.014"/>
        <use fill="#67397A" class="theme-highlight-background-color" xlink:href="#b"/>
        <ellipse cx="30.855" cy="35.485" stroke="#FFF" stroke-width="4" class="high-contrast-colors background" rx="11.309" ry="11.309"/>
        <path fill="#67397A" class="theme-highlight-background-color" d="M31.65 8.354s12.8.465 19.55 7.447c6.748 6.982 7.446 20.48 7.446 20.48H31.65V8.353z"/>
        <circle cx="31.508" cy="36.138" r="3.158" fill="#FFF" class="high-contrast-colors background"/>
        <g fill-rule="nonzero">
            <use fill="#663B79" class="theme-highlight-background-color" fill-rule="evenodd" xlink:href="#c"/>
            <path stroke="#FFF" stroke-width="3" class="high-contrast-colors background" d="M70.272 13.655l2.386-1.866a2.227 2.227 0 0 0 .565-2.821l-2.896-5.012c-.515-.944-1.683-1.342-2.69-.976L64.77 4.13c-.41-.272-.832-.518-1.268-.736l-.43-3.002c-.135-1.08-1.083-1.892-2.19-1.892h-5.757A2.201 2.201 0 0 0 52.93.418l-.427 2.979c-.428.216-.847.461-1.262.736l-2.827-1.135a2.205 2.205 0 0 0-2.754.99l-2.86 4.948a2.206 2.206 0 0 0 .542 2.849l2.392 1.87a10.577 10.577 0 0 0 0 1.475l-2.387 1.866a2.227 2.227 0 0 0-.565 2.821l2.897 5.013c.514.943 1.682 1.342 2.689.975l2.867-1.15c.41.272.833.518 1.268.736l.43 3.003c.135 1.079 1.084 1.891 2.19 1.891h5.758a2.201 2.201 0 0 0 2.193-1.918l.428-2.978c.427-.216.846-.462 1.261-.737l2.827 1.136a2.205 2.205 0 0 0 2.754-.99l2.86-4.948c.536-.982.314-2.174-.542-2.85l-2.391-1.87a10.525 10.525 0 0 0 0-1.475zM58.003 17.93a3.543 3.543 0 0 1-3.537-3.537 3.543 3.543 0 0 1 3.537-3.538 3.543 3.543 0 0 1 3.538 3.538 3.543 3.543 0 0 1-3.538 3.537z"/>
        </g>
    </g>
</svg>
