<svg xmlns="http://www.w3.org/2000/svg" width="77" height="38" viewBox="0 0 77 38">
    <path fill="#67397A" fill-rule="nonzero" class="theme-highlight-background-color" d="M75.976 14.526l-5.574-5.019a1.881 1.881 0 0 0-1.23-.481l-34.42-.46c-.807-1.106-2.095-2.768-3.096-3.67-7.68-6.915-19.56-6.292-26.48 1.393-6.92 7.684-6.293 19.56 1.392 26.48 7.685 6.919 19.565 6.296 26.484-1.388 2.057-2.284 2.997-4.206 3.648-5.918l6.192 2.658a1.878 1.878 0 0 0 2.163-.5l4.646-5.397 5.655 4.424c.76.593 1.843.515 2.51-.179l5.914-6.175 5 2.829a1.88 1.88 0 0 0 2.316-.378l5.019-5.573a1.873 1.873 0 0 0-.139-2.646zm-61.045.546a5.627 5.627 0 0 1 .416 7.946 5.63 5.63 0 0 1-7.946.417 5.63 5.63 0 0 1-.416-7.946 5.63 5.63 0 0 1 7.946-.417z"/>
</svg>
