<?xml version="1.0" encoding="UTF-8"?>
<svg width="95px" height="31px" viewBox="0 0 95 31" version="1.1" xmlns="http://www.w3.org/2000/svg" xmlns:xlink="http://www.w3.org/1999/xlink">
    <title>symbolsgrid-or-list-selected</title>
    <g id="symbolsgrid-or-list-selected" stroke="none" stroke-width="1" fill="none" fill-rule="evenodd">
        <path d="M64,24 L95,24 L95,31 L64,31 L64,24 Z M64,12 L95,12 L95,19 L64,19 L64,12 Z M64,0 L95,0 L95,7 L64,7 L64,0 Z M53,0 L61,0 L61,7 L53,7 L53,0 Z M53,12 L61,12 L61,19 L53,19 L53,12 Z M53,24 L61,24 L61,31 L53,31 L53,24 Z" id="Shape" fill="#171717" fill-rule="nonzero"></path>
        <path d="M0,0 L13,0 L13,13 L0,13 L0,0 Z M18,0 L31,0 L31,13 L18,13 L18,0 Z M0,18 L13,18 L13,31 L0,31 L0,18 Z M18,18 L31,18 L31,31 L18,31 L18,18 Z" id="Shape" fill="#767676" fill-rule="nonzero"></path>
    </g>
</svg>